<?xml version="1.0" encoding="utf-8"?>
<!-- Generator: Adobe Illustrator 16.0.0, SVG Export Plug-In . SVG Version: 6.00 Build 0)  -->
<!DOCTYPE svg PUBLIC "-//W3C//DTD SVG 1.1//EN" "http://www.w3.org/Graphics/SVG/1.1/DTD/svg11.dtd">
<svg version="1.1" id="Layer_2" xmlns="http://www.w3.org/2000/svg" xmlns:xlink="http://www.w3.org/1999/xlink" x="0px" y="0px"
	 width="128px" height="128px" viewBox="0 0 368.667 334.667" enable-background="new 0 0 368.667 334.667"
	 xml:space="preserve">
<g>
	<path d="M190.93,192.652c0,0,0.307-0.173,0.797-0.519c0.255-0.153,0.538-0.386,0.863-0.649c0.32-0.27,0.703-0.536,1.07-0.899
		c0.377-0.345,0.785-0.719,1.217-1.114c0.421-0.406,0.822-0.882,1.271-1.334c0.438-0.464,0.911-0.922,1.322-1.456
		c0.428-0.518,0.862-1.043,1.297-1.568l0.664-0.776c0.199-0.276,0.396-0.552,0.593-0.825c0.388-0.55,0.794-1.074,1.174-1.591
		c0.37-0.524,0.784-0.993,1.102-1.49c0.325-0.492,0.634-0.957,0.918-1.387c0.572-0.857,1.089-1.553,1.433-2.051
		c0.353-0.493,0.567-0.77,0.567-0.77s-0.137,0.317-0.397,0.864c-0.27,0.541-0.631,1.331-1.111,2.255
		c-0.242,0.461-0.504,0.961-0.781,1.49c-0.278,0.529-0.648,1.04-1.004,1.586c-0.365,0.54-0.729,1.108-1.124,1.668
		c-0.195,0.282-0.392,0.566-0.59,0.851l-0.666,0.806c-0.454,0.53-0.907,1.06-1.354,1.582c-0.424,0.541-0.951,0.977-1.42,1.434
		c-0.479,0.448-0.934,0.889-1.398,1.269c-0.483,0.358-0.939,0.698-1.361,1.011c-0.407,0.328-0.85,0.54-1.215,0.756
		c-0.369,0.211-0.688,0.396-0.977,0.512C191.264,192.564,190.93,192.652,190.93,192.652z"/>
</g>
<path fill="#DF2726" d="M192.866,203.874L335.47,326.419c0,0,11.471,9.396,22.63-2.824c10.559-11.565,6.696-21.222,3.74-23.724
	c-39.491-33.434-142.621-124.613-142.621-124.613C201.188,185.51,192.868,203.87,192.866,203.874z"/>
<path opacity="0.2" fill="#FFFFFF" d="M198.463,194.54c0,0,106.163,93.528,145.359,127.44c1.436,1.243,4.739,1.881,7.538-0.941
	c3.673-3.704,2.23-7.068,1.246-7.902C339.452,302,206.684,184.731,206.684,184.731C200.678,188.147,198.464,194.538,198.463,194.54z
	"/>
<path fill="#FFFFFF" stroke="#000000" stroke-width="2" stroke-miterlimit="10" d="M192.866,203.874
	c0.002-0.004,8.322-18.363,26.354-28.615c-3.129-2.708-7.098-0.985-8.959-2.02c-1.86-1.034-1.912-8.134-6.977-14.039
	c-5.065-5.906-10.282-2.174-10.282-2.174s-21.408,18.947-22.575,25.48c-1.021,5.726,8.776,10.389,11.5,11.247
	c6.084,1.919,9.848,1.038,8.793,3.374C189.149,200.602,192.866,203.874,192.866,203.874z"/>
<path fill="none" stroke="#000000" stroke-width="2" stroke-miterlimit="10" d="M192.866,203.874
	c0.002-0.004,8.322-18.363,26.354-28.615"/>
<path opacity="0.3" d="M197.318,184.806c0,0-13.909,6.15-15.671-10.641l-8.304,7.85c0,0,7.625,11.145,19.915,8.451l2.877,6.582
	l3.791-5.88L197.318,184.806z"/>
<path fill="#FFFFFF" d="M334.116,325.256c0,0,10.049-20.082,24.621-28.02l-11.529-9.876c0,0-15.72,11.21-24.036,28.489
	L334.116,325.256z"/>
<path fill="#FFFFFF" d="M309.703,304.276c0,0,9.325-19.178,24.662-28.018l-11.231-9.756c0,0-16.82,12.265-23.901,28.775
	L309.703,304.276z"/>
<path fill="#FFFFFF" d="M286.13,284.019c0,0,10.131-18.784,25.468-27.624l-11.225-9.75c0,0-16.548,11.937-24.533,28.531
	L286.13,284.019z"/>
<path fill="#FFFFFF" d="M263.242,264.35c0,0,6.533-15.305,24.269-28.979l-9.725-8.53c0,0-13.62,6.188-25.08,28.456L263.242,264.35z"
	/>
<path fill="#FFFFFF" d="M239.693,244.114c0,0,8.558-18.37,24.804-28.949l-10.263-9.029c0,0-18.157,13.408-24.519,29.404
	L239.693,244.114z"/>
<path fill="#FFFFFF" d="M242.958,196.206c0,0-17.786,11.735-25.264,29.004l-11.526-9.906c0,0,8.132-16.016,25.178-29.09
	L242.958,196.206z"/>
<path fill="none" stroke="#000000" stroke-width="2" stroke-miterlimit="10" d="M192.866,203.874L335.47,326.419
	c0,0,11.471,9.396,22.63-2.824c10.559-11.565,6.696-21.222,3.74-23.724c-39.491-33.434-142.621-124.613-142.621-124.613
	C201.188,185.51,192.868,203.87,192.866,203.874z"/>
<g>
	
		<ellipse transform="matrix(-0.9011 -0.4336 0.4336 -0.9011 155.981 243.8785)" fill="none" stroke="#000000" stroke-width="5" stroke-miterlimit="10" cx="105.805" cy="104.149" rx="101.501" ry="95.87"/>
	<path fill="#FFFFFF" stroke="#000000" stroke-miterlimit="10" d="M64.23,190.536c50.514,24.311,110.076,5.339,133.036-42.371
		c22.961-47.711,0.626-106.094-49.889-130.403C96.866-6.547,37.305,12.423,14.344,60.134
		C-8.616,107.844,13.719,166.227,64.23,190.536z M143.691,25.42c46.036,22.154,66.389,75.361,45.464,118.842
		c-20.924,43.479-75.204,60.768-121.239,38.613C21.884,160.723,1.53,107.516,22.455,64.038
		C43.379,20.557,97.659,3.268,143.691,25.42z"/>
</g>
</svg>
