<?xml version="1.0" encoding="utf-8"?>
<!-- Generator: Adobe Illustrator 16.0.0, SVG Export Plug-In . SVG Version: 6.00 Build 0)  -->
<!DOCTYPE svg PUBLIC "-//W3C//DTD SVG 1.1//EN" "http://www.w3.org/Graphics/SVG/1.1/DTD/svg11.dtd">
<svg version="1.1"
	 id="svg80" xmlns:dc="http://purl.org/dc/elements/1.1/" xmlns:cc="http://creativecommons.org/ns#" xmlns:rdf="http://www.w3.org/1999/02/22-rdf-syntax-ns#" xmlns:svg="http://www.w3.org/2000/svg"
	 xmlns="http://www.w3.org/2000/svg" xmlns:xlink="http://www.w3.org/1999/xlink" x="0px" y="0px" width="411.993px" height="469px"
	 viewBox="0 0 411.993 469" enable-background="new 0 0 411.993 469" xml:space="preserve">
<g id="Layer1000">
	<path id="path6" fill="#00529E" stroke="#1B1918" stroke-width="11.1568" stroke-linecap="round" stroke-linejoin="round" d="
		M202.546,60.019c104.543,0,189.293,87.412,189.293,195.239l0,0c0,107.827-84.748,195.238-189.291,195.238
		S13.255,363.085,13.255,255.258C13.256,147.431,98.005,60.019,202.546,60.019z"/>
	<path id="path12" fill="#F4BF94" stroke="#1B1918" stroke-width="7.9653" stroke-linecap="round" stroke-linejoin="round" d="
		M92.824,245.368c16.178,56.662,30.875,112.814,43.836,171.551c3.225,14.612,7.283,28.687,20.652,35.405
		c16.734,8.411,41.979,8.006,60.697,7.377c24.449-0.822,38.021-15.828,44.68-34.353c9.656-26.87,14.893-56.2,22.34-84.3
		c7.445-31.753,14.893-63.507,22.338-95.26c-11.494-8.964-20.188-20.33-23.814-36.038c-14.893,0-29.838,1.251-44.678,0
		c-8.627-0.728-17.775-1.605-25.291-5.9c-20.447-11.686-38.215-27.538-57.322-41.308c-4.496,2.248-8.992,4.496-13.488,6.744
		c-0.281,14.472-0.563,28.942-0.844,43.414c-6.604-9.413-13.207-18.827-19.811-28.239c-1.826,0.421-3.652,0.843-5.479,1.265
		c-0.281,14.893-0.564,29.785-0.844,44.679c-7.447-11.1-13.23-15.474-19.623-28.26C89.779,189.36,107.787,262.018,92.824,245.368
		L92.824,245.368z"/>
	<g id="Layer1001">
		<path id="path14" fill="#1B1918" d="M89.199,246.717c-6.744-1.477-12.36-9.516-21.663-5.271
			c-4.692,2.143-6.966,7.491-7.166,12.646c-0.259,6.658,3.091,11.668,6.144,17.593c4.227,8.208,12.641,7.259,16.197,19.499
			c3.686,12.688,4.322,26.08,5.898,39.199c1.377,11.449,8.787,16.105,13.91,12.224c2.926-2.217,8.127-6.694,12.529-2.032
			C108.406,308.622,98.576,277.759,89.199,246.717L89.199,246.717z"/>
		<path id="path16" fill="#F4BF94" d="M76.652,259.809c-0.596,2.58,3.219,5.485,2.266,7.956c-0.816,2.115-5.85,2.748-7.587,1.291
			c-3.3-2.771-5.63-7.51-5.269-11.803c0.301-3.576,3.377-7.912,6.955-8.22c5.459-0.468,12.967,1.309,15.174,6.322
			c7.041,16.001,10.211,32.184,14.33,48.473c2.064,8.162,4.998,16.356,4.531,24.765c-0.17,3.044-4.781,7.509-7.799,7.06
			c-2.527-0.377-3.211-4.039-3.057-7.587c0.771-17.489-2.691-25.462-6.109-36.882c-2.043-6.822-3.309-13.87-5.48-20.653
			c-1.277-3.988-2.043-8.48-4.848-11.591C78.663,257.722,77.019,258.212,76.652,259.809L76.652,259.809z"/>
	</g>
	<g id="Layer1002">
		<path id="path19" fill="#1B1918" d="M310.933,246.043c6.744-1.476,14.469-7.491,23.77-3.247c4.691,2.143,6.967,7.491,7.164,12.646
			c0.262,6.659-3.09,11.668-6.143,17.593c-4.227,8.208-12.641,7.259-16.195,19.499c-3.688,12.688-4.326,26.08-5.9,39.199
			c-1.375,11.45-8.785,16.106-13.908,12.224c-2.926-2.217-5.602-6.02-11.352-2.875C295.835,309.739,302.457,277.385,310.933,246.043
			L310.933,246.043z"/>
		<path id="path21" fill="#F4BF94" d="M326.431,261.157c0.596,2.58-3.221,5.486-2.266,7.956c0.814,2.115,5.85,2.748,7.586,1.291
			c3.301-2.77,5.631-7.509,5.27-11.802c-0.301-3.576-3.379-7.913-6.955-8.22c-5.459-0.469-12.967,1.308-15.174,6.321
			c-7.041,16.001-10.211,32.185-14.33,48.474c-2.064,8.162-4.998,16.355-4.531,24.763c0.168,3.045,4.781,7.51,7.797,7.061
			c2.529-0.377,3.213-4.038,3.057-7.587c-0.77-17.488,2.693-25.462,6.111-36.882c2.043-6.822,3.307-13.87,5.48-20.652
			c1.275-3.988,2.041-8.481,4.846-11.592C324.421,259.07,326.06,259.56,326.431,261.157z"/>
	</g>
	<path id="path24" fill="#1B1918" d="M257.697,337.729c-18.553,15.504-38.875,20.604-58.783,19.898
		c-19.604-0.692-38.723-7.045-55.273-14.581c-1.52,2.132-2.701,5.551-4.961,5.434c-2.111-0.109-4.393-2.763-4.082-4.854
		c0.35-2.364,3.129-3.897,4.617-6.46c1.311-2.257,1.322-5.458,3.361-7.281c1.578-1.41,5.127-0.65,6.248,1.146
		c1.227,1.965-1.125,4.454-2.023,6.481c15.797,7.142,33.918,13.117,52.338,13.77c18.656,0.66,37.705-4.179,55.053-18.919
		c-1.021-2.06-1.881-4.325-2.584-6.699c-0.494-1.685,0.471-3.45,2.154-3.944c1.684-0.495,3.451,0.469,3.945,2.152
		c0.957,3.236,2.223,6.185,3.832,8.462c1.271,1.805,2.738,3.153,4.404,3.815c1.629,0.646,2.426,2.491,1.779,4.12
		s-2.49,2.426-4.119,1.778C261.337,341.145,259.378,339.652,257.697,337.729L257.697,337.729z"/>
	<path id="path26" fill="#1B1918" d="M220.322,314.778c1.209-1.271,3.223-1.322,4.492-0.112c1.271,1.21,1.322,3.223,0.111,4.493
		c-7.486,7.836-15.365,11.316-23.549,11.416c-8.039,0.099-16.172-3.103-24.367-8.648c-1.457-0.983-1.842-2.961-0.859-4.418
		c0.982-1.458,2.961-1.843,4.418-0.859c7.176,4.856,14.119,7.66,20.734,7.579C207.769,324.149,214.121,321.269,220.322,314.778z"/>
	<path id="path28" fill="#1B1918" stroke="#1B1918" stroke-width="0.5669" d="M295.564,250.161h10.777l-3.213,13.698h-5.787
		c-0.561,24.538-20.625,44.258-45.297,44.258c-24.674,0-44.738-19.72-45.299-44.258h-8.668
		c-0.559,24.538-20.625,44.258-45.297,44.258c-23.609,0-42.998-18.059-45.117-41.116l-8.051,2.445l-6.059-11.9l14.979-4.522
		c4.473-20.321,22.582-35.527,44.248-35.527c20.637,0,38.047,13.795,43.521,32.666h12.221c5.473-18.871,22.885-32.666,43.521-32.666
		C272.681,217.495,290.093,231.29,295.564,250.161z"/>
	<g id="Layer1003">
		<path id="path30" fill="#FFFFFF" stroke="#1B1918" stroke-width="0.5669" d="M252.046,228.032
			c19.205,0,34.771,15.568,34.771,34.773l0,0c0,19.205-15.566,34.773-34.771,34.773s-34.773-15.568-34.773-34.773
			S232.841,228.032,252.046,228.032z"/>
		<path id="path32" fill="#1B1918" stroke="#1B1918" stroke-width="0.5669" d="M252.046,255.43c4.07,0,7.375,3.303,7.375,7.376
			c0,4.074-3.305,7.376-7.375,7.376c-4.074,0-7.377-3.302-7.377-7.376C244.669,258.732,247.972,255.43,252.046,255.43
			L252.046,255.43z"/>
	</g>
	<g id="Layer1004">
		<path id="path35" fill="#FFFFFF" stroke="#1B1918" stroke-width="0.5669" d="M152.783,228.032
			c19.205,0,34.773,15.568,34.773,34.773l0,0c0,19.205-15.568,34.773-34.773,34.773s-34.773-15.568-34.773-34.773
			S133.578,228.032,152.783,228.032z"/>
		<path id="path37" fill="#1B1918" stroke="#1B1918" stroke-width="0.5669" d="M152.783,255.43c4.072,0,7.375,3.303,7.375,7.376
			c0,4.074-3.303,7.376-7.375,7.376c-4.074,0-7.377-3.302-7.377-7.376C145.406,258.732,148.708,255.43,152.783,255.43
			L152.783,255.43z"/>
	</g>
	<path id="path40" fill="#84725B" stroke="#1B1918" stroke-width="3.1861" stroke-linecap="round" stroke-linejoin="round" d="
		M287.224,211.382c0,0,8.641,24.553,14.438,26.87c5.795,2.318,4.74,0.737,4.74,0.737l-0.842-20.126c0,0-1.055-9.272-8.957-9.483
		C288.697,209.169,287.224,211.382,287.224,211.382z"/>
	<path id="path42" fill="#84725B" stroke="#1B1918" stroke-width="7.9653" d="M258.197,108.22
		c10.941-6.06,21.883-12.117,32.824-18.178c7.482-0.597,14.775,2.3,23.396,2.636c7.035,0.273,13.129,4.981,20.02,6.428
		c10.07,2.112,11.291,9.153,20.863,11.17c11.318,2.384,15.66,5.297,23.814,6.111c6.162,0.614,9.902,0.092,14.754-1.266
		l-17.912,16.861l-11.703,3.39c-6.961-3.517-8.625-8.263-18.699-9.026c-22.607-1.716-10.146-7.999-28.77-10.959
		c-7.318-1.164-20.396-2.116-32.139-0.844c-5.674,0.615-9.023-1.063-13.383-2.107C266.814,111.367,262.554,109.625,258.197,108.22z"
		/>
	<path id="path44" fill="#84725B" stroke="#1B1918" stroke-width="7.9653" d="M230.533,123.499
		c9.225-5.093,18.443-10.186,27.664-15.278c4.355,1.404,8.617,3.146,13.066,4.215c4.357,1.046,7.709,2.724,13.383,2.107
		c11.74-1.272,24.818-0.32,32.139,0.844c18.621,2.96,6.16,9.243,28.77,10.959c13.547,1.026,11.883,9.256,28.346,12.013
		c6.592,1.104,12.926,1.756,20.021,1.054l-20.443,14.963l-14.029,3.139c-1.703-0.646-3.34-1.37-4.887-2.189
		c-9.994-5.292-19.816-9.051-29.822-13.698c-8.629-4.01-21.873-6.756-31.822-2.95c-7.408,2.833-15.242,2.492-22.762,1.265
		c-7.574-1.238-13.975-4.833-21.074-8.43C243.072,128.465,236.716,126.169,230.533,123.499L230.533,123.499z"/>
	<path id="path46" fill="#84725B" stroke="#1B1918" stroke-width="7.9653" d="M202.933,135.727
		c9.201-4.076,18.402-8.151,27.6-12.229c6.184,2.67,12.539,4.967,18.547,8.01c7.102,3.597,13.5,7.19,21.074,8.43
		c7.521,1.229,15.355,1.568,22.764-1.265c9.947-3.806,23.191-1.06,31.82,2.95c10.006,4.648,19.828,8.406,29.822,13.698
		c11.35,6.01,27.607,7.025,38.25,7.376l-18.545,14.12l-8.432,4.446c-5.107-1.265-10.301-2.862-16.016-4.656
		c-13.756-4.319-26.471-11.788-40.254-16.019c-10.557-3.238-21.545-3.165-34.773-2.317c-7.896,0.507-17.963,4.303-25.5,1.896
		c-8.744-2.79-18.178-5.544-26.977-10.115C214.896,146.199,209.742,139.521,202.933,135.727L202.933,135.727z"/>
	<path id="path48" fill="#84725B" stroke="#1B1918" stroke-width="7.9653" d="M176.662,148.669l26.266-12.945
		c6.814,3.793,11.969,10.476,19.389,14.331c8.799,4.571,18.232,7.326,26.977,10.116c7.537,2.404,17.604-1.392,25.5-1.897
		c13.229-0.848,24.217-0.921,34.773,2.318c13.783,4.229,26.498,11.697,40.254,16.018c14.541,4.565,25.711,7.867,40.674,7.587
		l-23.393,13.277l-23.18,4.13c-2.123-0.883-4.365-1.933-6.748-3.183c-10.912-5.718-21.48-13.588-33.51-16.228
		c-10.682-2.342-25.109,0.515-36.037,1.896c-10.043,1.271-16.232,1.045-26.137-1.054c-7.906-1.676-17.178-3.62-24.234-8.219
		C203.287,165.717,190.187,157.721,176.662,148.669L176.662,148.669z"/>
	<path id="path50" fill="#84725B" stroke="#1B1918" stroke-width="7.9653" d="M387.542,206.219
		c-6.605,5.761-11.904,13.502-19.813,17.28c-7.105,3.398-15.543,4.03-23.395,3.372c-6.031-0.505-11.838-3.364-16.859-6.743
		c-10.363-6.973-21.871-12.23-34.984-13.066c-14.16-0.902-26.551-0.939-42.568-0.21c-12.678,0.576-26.252-1.354-37.307-7.587
		c-19.441-10.97-37.16-25.501-54.793-39.832c6.184-3.653,12.363-7.307,18.547-10.959c13.629,9.133,26.816,17.178,40.885,26.344
		c7.059,4.599,16.328,6.543,24.234,8.219c9.902,2.1,16.094,2.324,26.137,1.055c10.928-1.383,25.355-4.238,36.035-1.896
		c12.031,2.641,22.6,10.51,33.512,16.229C361.021,210.921,370.751,203.62,387.542,206.219z"/>
	<path id="path52" fill="#84725B" stroke="#1B1918" stroke-width="7.9653" d="M121.636,182.143l20.328,28.672l0.807-41.526
		L121.636,182.143z"/>
	<path id="path54" fill="#84725B" stroke="#1B1918" stroke-width="7.9653" d="M94.66,198.581l20.33,28.672l0.807-41.525
		L94.66,198.581z"/>
	<path id="path56" fill="#84725B" stroke="#1B1918" stroke-width="7.9653" d="M75.482,210.383
		c-0.229,11.714,2.521,26.33,19.697,34.361c1.992-1.271,1.549-8.95,1.426-16.23c-0.164-9.764-0.975-19.274-3.781-28.246
		C90.363,192.398,75.642,202.138,75.482,210.383z"/>
	<path id="path58" fill="#84725B" stroke="#1B1918" stroke-width="3.1861" stroke-linecap="round" stroke-linejoin="round" d="
		M306.4,238.99l-0.842-20.126c0,0,2.529-4.426,4.32-4.531c1.791-0.104,4.742,0,8.535,2.214c3.793,2.213,3.055,7.901,1.475,11.906
		C318.31,232.457,313.566,239.412,306.4,238.99z"/>
	<path id="path60" fill="#FFFFFF" stroke="#1B1918" stroke-width="7.9653" d="M262.646,54.703
		c0.752,1.814-72.16-27.313-135.553,4.383C96.507,74.379,73.917,90.98,64.036,139.171c-1.099,5.354-1.634,14.934-1.606,22.652l0,0
		c0.988-0.498,2.287-0.936,3.992-1.179c5.901-0.844,7.166-2.529,13.697-6.955c6.535-4.426,9.484-5.479,16.439-7.376
		c6.955-1.897,13.488-11.381,21.074-14.12c7.588-2.74,56.061-32.456,62.805-35.617s41.729-19.389,59.852-26.765
		c15.668-6.376,15.904-10.231,22.895-13.203C263.072,55.955,262.916,55.314,262.646,54.703z"/>
	<path id="path62" fill="#E30016" stroke="#1B1918" stroke-width="7.9653" d="M59.465,164.65c0,0-4.637,13.909,0.421,23.604
		c5.059,9.693,3.584,19.178,22.129,9.693c18.547-9.484,68.705-37.092,68.705-37.092s46.996-26.345,57.957-30.349
		c10.959-4.006,79.031-40.044,81.77-41.94c2.74-1.896,15.598-4.426,3.162-16.438c-12.434-12.012-15.385-20.021-26.555-16.859
		c-11.17,3.16-8.641,7.166-26.766,14.542c-18.123,7.376-53.107,23.604-59.852,26.765s-55.217,32.877-62.805,35.617
		c-7.586,2.739-14.119,12.223-21.074,14.12c-6.955,1.896-9.904,2.95-16.439,7.376c-6.532,4.426-7.796,6.111-13.697,6.955
		C60.521,161.488,59.465,164.65,59.465,164.65L59.465,164.65z"/>
	<path id="path64" fill="#1B1918" d="M119.927,106.97l-4.383,2.527c0,0-7.756,0.001-7.756,1.351c0,1.349-1.182,1.517-3.035,3.877
		s-2.191,4.047-7.586,4.047c-5.396,0-6.912,2.022-8.264,3.372c-1.348,1.349-1.686,3.878-6.912,3.878c-5.225,0-10.452,0-10.452,0
		s-1.349-5.396,0.506-6.913c1.854-1.518,5.396-0.506,8.093-0.506c0.162,0,0.32,0.002,0.475,0.005
		c0.434-3.688,0.553-13.143,0.553-13.174c0.012-0.877,0.729-1.578,1.605-1.568s1.578,0.729,1.568,1.605
		c0,0.03-0.109,8.593-0.594,13.158c0.975-0.104,1.941-0.41,3.137-1.206c1.404-0.938,1.82-1.719,2.607-2.228
		c0.018-0.056,0.037-0.11,0.061-0.166c0.639-1.49,0.803-14.449,0.803-14.485c0.012-0.877,0.73-1.578,1.605-1.568
		c0.877,0.011,1.578,0.729,1.568,1.604c0,0.033-0.123,9.714-0.688,13.977c3.467-0.009,4.055-0.771,5.359-2.183
		c-0.994-0.605-1.42-1.863-0.949-2.967c0.578-1.351,0.74-14.146,0.74-14.185c0.016-1.314,1.094-2.367,2.408-2.353
		c1.314,0.016,2.367,1.095,2.354,2.408c-0.002,0.034-0.137,10.596-0.801,14.69c1.258-0.375,2.43-0.474,2.973-0.474
		c1.012,0,0.674-1.686,3.877-2.19S117.568,103.935,119.927,106.97L119.927,106.97z M107.685,91.505
		c0.02-1.314,1.104-2.363,2.418-2.344c1.314,0.021,2.363,1.104,2.342,2.418c0,0.021-0.086,7.207-1.027,9.41
		c-0.518,1.211-1.916,1.775-3.129,1.26c-1.211-0.515-1.775-1.915-1.26-3.127C107.601,97.785,107.685,91.522,107.685,91.505
		L107.685,91.505z"/>
	<g id="Layer1005">
		<path id="path66" fill="#E30016" d="M147.074,55.379c-9.328-20.795-23.037-26.783-39.113-29
			c-14.248-1.965-31.646,5.918-39.115,18.209c-7.423,12.211-3.904,41.275,4.383,45.185l17.871,8.43L147.074,55.379z"/>
		<path id="path68" fill="#1B1918" d="M72.752,92.422c1.237-0.448,2.604,0.19,3.052,1.429c0.449,1.236-0.191,2.604-1.428,3.053
			c-0.005,0.002-1.833,0.596-8.816,10.438c-0.764,1.071-2.252,1.322-3.324,0.561c-1.071-0.764-1.322-2.251-0.559-3.323
			C69.529,93.514,72.744,92.426,72.752,92.422z M130.255,49.256c-0.994,0.86-2.5,0.752-3.359-0.244
			c-0.861-0.994-0.752-2.5,0.242-3.359c0.023-0.021,8.48-7.34,10.305-10.38c0.676-1.128,2.139-1.497,3.268-0.821
			s1.498,2.139,0.82,3.268C139.31,41.422,130.281,49.233,130.255,49.256L130.255,49.256z M126.095,37.024
			c-0.758,1.078-2.246,1.336-3.322,0.579c-1.078-0.758-1.336-2.246-0.58-3.323c0.018-0.022,5.533-7.879,7.494-11.146
			c0.676-1.129,2.139-1.498,3.268-0.821c1.129,0.675,1.496,2.138,0.822,3.267C131.691,29.056,126.111,37.002,126.095,37.024
			L126.095,37.024z M116.55,29.778c-0.201,1.3-1.418,2.188-2.717,1.988c-1.301-0.201-2.189-1.417-1.988-2.716
			c0.004-0.026,1.418-9.228,3.68-12.998c0.676-1.129,2.139-1.497,3.268-0.821s1.496,2.138,0.82,3.267
			C117.83,21.472,116.554,29.754,116.55,29.778L116.55,29.778z M107.472,29.545c-0.07,1.314-1.195,2.322-2.51,2.25
			c-1.314-0.071-2.322-1.195-2.25-2.511c0.004-0.048,0.869-16.759,3.203-20.649c0.676-1.129,2.139-1.496,3.268-0.82
			c1.127,0.675,1.496,2.139,0.82,3.268C108.292,13.934,107.476,29.5,107.472,29.545L107.472,29.545z M99.886,29.631
			c0.066,1.313-0.945,2.435-2.26,2.5c-1.314,0.066-2.436-0.943-2.5-2.258c-0.002-0.029-0.523-9.76,0.553-14.779
			c0.271-1.288,1.539-2.111,2.828-1.838c1.287,0.272,2.109,1.539,1.838,2.828C99.398,20.506,99.884,29.604,99.886,29.631
			L99.886,29.631z M90.117,33.967c0,1.32-1.068,2.39-2.389,2.39s-2.391-1.069-2.391-2.39c0-0.029,0-9.959-0.158-14.416
			c-0.047-1.313,0.98-2.418,2.295-2.463c1.314-0.047,2.418,0.981,2.465,2.295C90.117,24.368,90.117,33.939,90.117,33.967
			L90.117,33.967z M82.455,36.76c0.32,1.277-0.457,2.574-1.734,2.894c-1.279,0.32-2.574-0.458-2.895-1.735
			c-0.006-0.024-2.061-8.242-5.762-12.713c-0.84-1.017-0.698-2.521,0.316-3.361c1.016-0.84,2.52-0.697,3.36,0.318
			C80.132,27.467,82.449,36.733,82.455,36.76z M79.116,41.496c1.149,0.645,1.56,2.098,0.915,3.248
			c-0.645,1.149-2.1,1.559-3.249,0.915c-0.026-0.015-9.154-5.104-13.485-10.338c-0.84-1.016-0.697-2.521,0.317-3.36
			c1.016-0.84,2.521-0.697,3.36,0.317C70.736,36.821,79.091,41.482,79.116,41.496L79.116,41.496z M68.601,48.783
			c1.313-0.042,2.414,0.991,2.455,2.305c0.041,1.314-0.992,2.414-2.307,2.455c-0.014,0-4.534,0.219-9.332-5.578
			c-0.84-1.017-0.697-2.521,0.316-3.361c1.017-0.84,2.521-0.698,3.361,0.316C66.392,48.903,68.595,48.783,68.601,48.783z
			 M69.546,58.731c1.314-0.077,2.443,0.926,2.521,2.239c0.078,1.314-0.926,2.443-2.24,2.521c-0.023,0.002-8.53,0.534-15.199-1.628
			c-1.252-0.402-1.941-1.744-1.54-2.996c0.402-1.253,1.744-1.941,2.996-1.541C61.892,59.209,69.525,58.732,69.546,58.731
			L69.546,58.731z M68.48,70.224c1.299-0.201,2.516,0.688,2.715,1.987c0.201,1.299-0.688,2.517-1.987,2.717
			c-0.022,0.003-7.771,1.236-14.179,0.347c-1.303-0.181-2.215-1.384-2.034-2.688c0.18-1.304,1.384-2.215,2.688-2.035
			C61.415,71.349,68.459,70.227,68.48,70.224L68.48,70.224z"/>
	</g>
	<path id="path71" fill="none" stroke="#1B1918" stroke-width="8.5039" stroke-linecap="round" stroke-linejoin="bevel" d="
		M71.037,87.075c0,0-3.203,1.012-11.296,0.17"/>
	<path id="path73" fill="#1B1918" d="M227.328,402.527c0,0-2.865,3.93-4.889,5.502c-2.021,1.571-3.373-1.572-3.373-1.287
		C219.066,406.742,223.787,401.179,227.328,402.527z"/>
	<path id="path75" fill="#1B1918" d="M214.009,406.405c0,0-6.574,4.047-11.127,4.553s-13.824-0.844-16.523-2.36
		c-2.697-1.518-4.383-3.54-6.744-4.553c-2.359-1.012-0.674-1.518,2.867-1.518s5.227,1.518,7.924,2.023s7.082,0.506,8.6,1.18
		c1.518,0.675,4.215,0.169,8.43-0.168S214.685,404.551,214.009,406.405L214.009,406.405z"/>
</g>
</svg>
