<?xml version="1.0" standalone="no"?>
<!DOCTYPE svg PUBLIC "-//W3C//DTD SVG 20010904//EN"
 "http://www.w3.org/TR/2001/REC-SVG-20010904/DTD/svg10.dtd">
<svg version="1.0" xmlns="http://www.w3.org/2000/svg"
 width="938.000000pt" height="938.000000pt" viewBox="0 0 938.000000 938.000000"
 preserveAspectRatio="xMidYMid meet">
<metadata>
Created by potrace 1.11, written by Peter Selinger 2001-2013
</metadata>
<g transform="translate(0.000000,938.000000) scale(0.100000,-0.100000)"
fill="#000000" stroke="none">
<path d="M2704 9222 c-30 -19 -54 -124 -70 -297 -3 -33 -7 -62 -9 -66 -4 -5
-24 -5 -55 0 -6 1 -4 118 4 186 5 44 -13 74 -41 69 -7 -1 -18 -2 -23 -3 -20
-2 -32 -57 -37 -161 -3 -58 -7 -107 -10 -110 -2 -2 -24 -9 -48 -16 l-45 -11 0
97 c0 85 -2 99 -21 116 -19 17 -23 17 -47 3 -27 -15 -27 -16 -28 -124 -1 -146
0 -139 -36 -155 -18 -7 -36 -15 -39 -17 -4 -2 -17 22 -30 54 -12 32 -27 61
-32 64 -5 3 -8 8 -6 10 1 2 -10 23 -26 47 -21 32 -34 42 -55 42 -57 0 -61 -42
-11 -117 17 -25 40 -71 51 -101 l21 -55 -32 -33 c-30 -31 -32 -31 -52 -16 -46
37 -112 98 -120 110 -22 34 -93 -7 -80 -47 7 -19 62 -74 115 -114 26 -21 35
-33 30 -45 -14 -33 -64 -112 -72 -112 -4 0 -24 17 -45 38 -52 54 -104 48 -105
-12 0 -22 83 -104 122 -118 13 -6 15 -13 7 -47 -5 -23 -9 -44 -8 -48 3 -21 -2
-32 -13 -28 -7 2 -35 6 -63 9 -27 3 -66 10 -84 15 -55 17 -100 -24 -73 -65 9
-15 78 -44 86 -37 3 3 13 2 23 -2 18 -8 32 -10 89 -13 l31 -2 1 -73 1 -73
-110 1 c-97 2 -111 0 -120 -16 -13 -26 -1 -66 22 -72 11 -3 57 -5 104 -6 47 0
94 0 104 -1 15 0 22 -12 31 -52 7 -29 17 -61 22 -72 15 -28 -2 -33 -100 -30
-92 2 -119 -8 -135 -50 -12 -32 3 -84 30 -101 45 -30 304 -25 323 5 3 5 19 3
35 -6 17 -8 32 -14 34 -12 2 2 8 -4 14 -13 7 -11 2 -27 -19 -60 -16 -24 -31
-46 -34 -49 -3 -3 -31 -56 -63 -118 -48 -94 -71 -127 -137 -193 -44 -45 -99
-104 -122 -131 -24 -28 -50 -58 -59 -67 -46 -47 -269 -343 -269 -356 0 -3 -5
-11 -11 -18 -42 -48 -176 -278 -258 -443 -95 -192 -208 -475 -252 -634 -7 -25
-14 -49 -15 -55 -2 -5 -19 -73 -39 -150 -34 -133 -41 -168 -50 -225 -2 -14 -6
-34 -8 -45 -8 -36 -22 -132 -32 -210 -3 -27 -8 -66 -10 -85 -28 -209 -23 -724
9 -935 3 -16 8 -52 11 -80 3 -27 10 -70 15 -95 5 -25 12 -58 14 -75 6 -39 14
-74 31 -148 8 -33 12 -64 9 -69 -3 -4 -1 -8 4 -8 5 0 9 -6 10 -12 2 -33 74
-284 99 -348 3 -8 7 -19 8 -25 4 -18 104 -264 127 -313 12 -26 22 -49 23 -52
0 -3 7 -16 15 -30 8 -14 15 -27 15 -30 1 -7 56 -114 102 -198 20 -37 63 -110
96 -162 33 -52 64 -104 71 -114 6 -11 16 -27 23 -35 7 -9 41 -56 77 -106 36
-49 71 -97 78 -105 7 -8 31 -37 53 -65 73 -92 162 -191 286 -314 121 -121 341
-312 398 -345 9 -6 27 -20 41 -33 14 -13 28 -23 32 -23 3 0 13 -6 20 -13 28
-27 264 -177 278 -177 6 0 10 -4 10 -8 0 -4 15 -15 32 -24 18 -9 94 -47 168
-85 133 -68 242 -118 248 -114 2 2 13 -4 25 -11 12 -8 51 -25 87 -37 36 -13
76 -28 90 -34 29 -12 25 -11 67 -21 18 -4 50 -25 70 -47 51 -54 126 -110 198
-149 33 -18 61 -32 63 -31 1 1 28 -7 60 -19 31 -12 64 -24 72 -26 93 -23 129
-31 170 -39 44 -8 155 -23 170 -24 8 0 33 -3 55 -6 22 -3 93 -7 158 -9 65 -2
121 -6 123 -9 3 -3 19 -1 35 3 17 5 31 5 35 -1 3 -5 10 -6 17 -2 16 10 57 10
57 0 0 -4 5 -5 11 -1 6 3 75 8 153 10 116 2 193 10 291 28 6 1 16 5 23 9 6 5
12 6 12 3 0 -7 135 41 185 67 61 30 165 102 214 146 24 22 57 43 75 47 46 10
297 94 328 110 15 8 29 14 30 13 2 0 17 5 33 12 17 7 35 13 41 14 18 4 348
165 354 173 3 4 28 18 55 32 28 14 52 28 55 31 3 3 12 9 20 13 23 11 50 28
102 64 26 17 51 32 57 32 6 0 11 5 11 10 0 6 6 10 14 10 8 0 16 4 18 8 2 5 25
23 53 42 27 19 56 40 65 46 8 7 50 40 93 74 86 68 106 84 181 150 66 59 286
277 286 284 0 3 13 18 28 33 16 16 52 57 82 93 29 36 56 67 59 70 24 19 251
344 251 358 0 6 4 12 8 14 8 3 72 104 72 114 0 3 7 12 15 21 8 8 13 19 10 24
-4 5 -2 9 3 9 5 0 17 19 28 43 10 23 21 44 25 47 20 15 219 463 219 493 0 7 4
17 8 22 5 6 15 30 22 55 8 25 18 51 23 57 5 7 7 13 3 13 -3 0 -1 12 5 28 6 15
20 56 31 92 18 62 21 73 33 120 14 55 36 152 41 179 3 14 7 27 9 31 3 5 11 49
21 125 1 11 3 20 4 20 3 0 9 39 15 90 2 28 7 61 9 75 36 203 42 733 11 970 -2
19 -7 57 -11 84 -3 27 -7 56 -9 65 -1 9 -6 36 -9 61 -3 25 -15 90 -26 145 -12
55 -23 112 -26 126 -4 23 3 33 42 65 l47 39 -59 10 -59 11 -20 69 c-11 39 -24
76 -28 83 -5 6 -6 12 -3 12 3 0 -1 17 -8 38 -13 37 -13 38 15 55 16 9 31 15
33 14 2 -1 13 6 24 16 20 18 20 19 1 84 -10 36 -21 68 -25 72 -3 3 -31 7 -62
8 -31 0 -62 2 -68 2 -6 1 -17 19 -24 42 -12 37 -12 42 3 50 9 5 22 15 29 22 7
7 29 24 48 37 19 13 37 27 40 30 3 3 41 32 85 65 44 33 85 65 91 70 6 6 36 28
67 50 62 44 69 55 35 54 -51 -1 -336 11 -378 16 -115 14 -135 17 -138 20 -2 2
24 23 58 47 33 24 88 64 122 91 33 26 63 47 67 47 3 0 20 11 36 25 17 13 35
28 40 33 6 5 24 17 40 28 17 10 32 21 35 24 3 3 27 22 55 41 27 18 55 39 62
44 7 6 23 18 35 27 13 10 34 26 48 37 l25 20 -55 -5 c-30 -2 -75 -7 -100 -10
-183 -21 -382 -22 -412 -2 -10 6 -9 12 7 24 22 16 195 177 281 262 l54 53 -22
42 c-45 83 -53 90 -90 81 -52 -12 -78 -14 -153 -14 -101 1 -145 8 -251 42 -86
27 -66 21 -223 63 -138 37 -197 67 -275 141 -30 28 -97 63 -161 84 -96 30
-187 63 -271 98 -78 33 -146 48 -234 51 -14 1 -48 16 -75 35 -28 19 -65 42
-82 51 -24 13 -33 25 -34 44 -4 100 -30 148 -152 277 -261 275 -288 298 -397
341 -36 14 -147 8 -205 -11 -117 -40 -124 -40 -85 2 12 12 19 22 17 22 -2 0
-56 14 -118 31 -110 29 -132 34 -174 43 -11 2 -38 9 -60 14 -22 6 -51 13 -65
16 -14 3 -36 8 -50 11 -14 3 -38 7 -55 10 -16 2 -41 7 -55 9 -72 14 -150 26
-195 31 -27 4 -66 8 -85 10 -37 5 -98 11 -215 22 -145 13 -508 7 -655 -12 -19
-2 -55 -7 -80 -9 -25 -3 -56 -8 -70 -10 -14 -3 -41 -7 -60 -10 -19 -2 -57 -10
-85 -16 -27 -6 -61 -13 -75 -15 -25 -4 -133 -32 -160 -41 -8 -3 -16 -5 -17 -5
-2 0 -21 -6 -43 -14 -33 -12 -45 -12 -61 -2 -10 6 -19 15 -19 20 0 5 -16 29
-35 54 l-35 45 33 38 c39 46 43 74 14 95 -30 21 -35 20 -76 -24 l-38 -40 -48
40 c-26 22 -55 43 -63 48 -12 7 -5 23 37 87 55 85 62 117 32 134 -37 19 -50
10 -107 -75 -31 -47 -61 -85 -67 -85 -14 0 -130 42 -141 51 -10 9 21 143 42
181 23 40 4 79 -37 76 -24 -2 -34 -10 -51 -46 -12 -24 -30 -76 -39 -115 -18
-77 -23 -81 -81 -67 -28 7 -28 12 -5 213 3 27 12 65 20 84 14 32 14 39 0 60
-15 23 -40 29 -61 15z"/>
<path d="M1970 7487 c-51 -49 -110 -115 -110 -123 0 -3 -9 -14 -19 -26 -11
-11 -26 -34 -35 -52 -13 -26 -13 -34 -2 -51 7 -11 20 -20 27 -21 20 0 59 18
59 27 0 8 119 159 144 185 6 5 19 13 28 17 23 8 34 53 18 72 -23 28 -62 18
-110 -28z"/>
</g>
</svg>
